With: Catherine Keener, Wendy Phillips en Dermot Mulroney

Magda is an artist with a strong-willed, she has doubts about the reality of justice and decide the law into their own hands. Magda finds liberation by painting portraits of people in her eyes violators of justice. When Magda's boyfriend leaves her for another woman, she leaves the city. She goes on a personal crusade to take revenge on the murderers, adulterers and other people that do not meet its requirements. 

General:

Complete name                    : Heroine Of Hell\Heroine of Hell.avi
Format                           : AVI
Format/Info                      : Audio Video Interleave
File size                        : 1005 MiB
Duration                         : 1h 27mn
Overall bit rate                 : 1610 Kbps

Video:

Format                           : MPEG-4 Visual
Format profile                   : Simple@L3
Format settings, BVOP            : No
Format settings, QPel            : No
Format settings, GMC             : No warppoints
Format settings, Matrix          : Default (H.263)
Codec ID                         : XVID
Codec ID/Hint                    : XviD
Duration                         : 1h 27mn
Bit rate                         : 1 437 Kbps
Width                            : 720 pixels
Height                           : 400 pixels
Display aspect ratio             : 16:9
Frame rate                       : 25.000 fps
Color space                      : YUV
Chroma subsampling               : 4:2:0
Bit depth                        : 8 bits
Scan type                        : Progressive
Bits/(Pixel*Frame)               : 0.200
Stream size                      : 897 MiB (89%)
Writing library                  : XviD 1.1.2 (UTC 2006-11-01)

Audio:

Format                           : MPEG Audio
Format version                   : Version 1
Format profile                   : Layer 3
Mode                             : Joint stereo
Mode extension                   : MS Stereo
Codec ID                         : 55
Codec ID/Hint                    : MP3
Duration                         : 1h 27mn
Bit rate mode                    : Constant
Bit rate                         : 160 Kbps
Channel(s)                       : 2 channels
Sampling rate                    : 48.0 KHz
Stream size                      : 99.9 MiB (10%)
Alignment                        : Split accross interleaves
Interleave, duration             : 24 ms (0.60 video frame)
Interleave, preload duration     : 24 ms
